<?xml version="1.0" standalone="no"?>
<!DOCTYPE svg PUBLIC "-//W3C//DTD SVG 20010904//EN"
 "http://www.w3.org/TR/2001/REC-SVG-20010904/DTD/svg10.dtd">
<svg version="1.0" xmlns="http://www.w3.org/2000/svg"
 width="500.000000pt" height="500.000000pt" viewBox="0 0 500.000000 500.000000"
 preserveAspectRatio="xMidYMid meet">

<g transform="translate(0.000000,500.000000) scale(0.100000,-0.100000)"
fill="#b94359" stroke="none">
<path d="M0 2500 l0 -2500 2500 0 2500 0 0 2500 0 2500 -2500 0 -2500 0 0
-2500z m1098 863 l-3 -138 -218 -3 -217 -2 2 -268 3 -267 153 -3 152 -3 0
-144 0 -145 -155 0 -155 0 0 -445 0 -445 -205 0 -205 0 0 1000 0 1000 425 0
426 0 -3 -137z m805 110 c22 -106 419 -1942 423 -1955 5 -17 -9 -18 -199 -18
l-205 0 -36 193 c-21 105 -40 200 -42 210 -5 15 -20 17 -135 17 -71 0 -129 -3
-129 -7 0 -4 -17 -99 -37 -210 l-36 -203 -204 0 c-112 0 -203 2 -203 4 0 4
414 1928 425 1974 5 22 7 22 189 22 l184 0 5 -27z m1282 4 c183 -53 282 -153
332 -337 16 -59 18 -120 18 -630 0 -510 -2 -572 -18 -635 -27 -106 -60 -170
-120 -229 -62 -62 -105 -87 -208 -117 -68 -21 -100 -23 -406 -27 l-333 -4 0
1002 0 1001 338 -3 c280 -4 347 -7 397 -21z m1260 1 c3 -13 98 -453 211 -978
113 -525 208 -965 211 -977 l5 -23 -204 0 -205 0 -39 210 -39 210 -130 0 -130
0 -33 -187 c-19 -104 -36 -198 -39 -210 -5 -23 -6 -23 -210 -23 -190 0 -204 1
-199 18 7 23 426 1967 426 1976 0 3 83 6 185 6 183 0 185 0 190 -22z"/>
<path d="M1664 2539 l-51 -354 95 -3 c52 -1 97 -1 99 2 4 4 -82 669 -91 700
-1 6 -25 -150 -52 -345z"/>
<path d="M2880 2502 l0 -717 88 6 c103 8 115 12 139 47 17 25 18 68 21 647 2
589 1 622 -16 655 -22 40 -78 64 -174 73 l-58 6 0 -717z"/>
<path d="M4207 2542 c-27 -191 -48 -350 -48 -354 1 -5 46 -8 100 -8 89 0 99 2
95 18 -2 9 -25 168 -49 352 -25 184 -47 335 -48 336 -1 1 -24 -154 -50 -344z"/>
</g>
</svg>
